<?xml version="1.0" encoding="utf-8"?>
<!-- Generator: Adobe Illustrator 27.5.0, SVG Export Plug-In . SVG Version: 6.00 Build 0)  -->
<svg version="1.1" xmlns="http://www.w3.org/2000/svg" xmlns:xlink="http://www.w3.org/1999/xlink" x="0px" y="0px"
	 viewBox="0 0 1122 1122" style="enable-background:new 0 0 1122 1122;" xml:space="preserve">
<g id="BG">
	<rect style="fill:#FFFFFF;" width="1122" height="1122"/>
</g>
<g id="Object">
	<g>
		<path style="fill:#597B92;" d="M658.647,331.589c0,0,2.822,24.454,1.411,32.919s-12.697,34.331-8.934,54.082
			c3.763,19.752,24.221,124.388,24.221,124.388s0.941,3.997,8.23,3.292c7.289-0.706,55.493-13.639,55.493-13.639
			s2.822-0.47,1.176-6.584c-1.646-6.114-27.748-124.153-27.748-124.153s-0.706-11.052-16.931-29.862
			c-10.214-11.842-12.698-8.935-19.805-27.033l-6.296-15.997L658.647,331.589z"/>
		<polygon style="fill:#FFFFFF;" points="655.93,443.449 718.182,427.58 727.058,467.554 663.828,484.003 		"/>
		<polygon style="fill:#ABA8A9;" points="656.295,321.409 660.777,335.586 668.993,333.932 667.748,319.518 		"/>
	</g>
	<g>
		<path style="fill:#C3A082;" d="M740.827,296.542c0,0-4.238,24.249-7.994,31.965c-3.756,7.716-21.923,29.312-23.923,49.319
			c-2.001,20.007-12.096,126.146-12.096,126.146s-0.233,4.1,6.956,5.493c7.19,1.393,57.081,2.68,57.081,2.68s2.839,0.35,2.997-5.979
			c0.158-6.329,8.647-126.922,8.647-126.922s2.461-10.797-7.754-33.441c-6.431-14.255-9.638-12.173-11.314-31.544l-1.495-17.126
			L740.827,296.542z"/>
		<polygon style="fill:#FFFFFF;" points="706.46,403.027 770.656,405.488 767.816,446.336 702.518,444.155 		"/>
		<polygon style="fill:#ABA8A9;" points="741.463,286.113 741.735,300.98 750.082,301.727 752.981,287.553 		"/>
	</g>
	<ellipse style="fill:#0D4331;" cx="545.199" cy="804.297" rx="359.199" ry="38.714"/>
	<g>
		<polygon style="fill:#6C645B;" points="807.446,471.039 807.548,486.184 802.208,480.414 		"/>
		<g>
			<polygon style="fill:#6C645B;" points="699.811,455.858 701.925,432.368 769.339,434.693 			"/>
			<polygon style="fill:#6C645B;" points="712.171,492.124 715.603,514.567 757.571,486.771 			"/>
		</g>
		<path style="fill:#B4B3A2;" d="M579.071,481.405c0,0,17.737,9.978,41.399,0.227c23.663-9.751,241.776-82.398,241.776-82.398
			l-11.73,20.02l12.844-4.377c0,0-50.751,110.903-201.423,77.078c0,0-32.624-9.121-48.423,6.383
			c-15.799,15.504-21.054,22.355-21.054,22.355S597.116,499.711,579.071,481.405z"/>
		<polygon style="fill:#6C645B;" points="811.561,444.759 772.496,453.856 784.72,469.929 		"/>
		<path style="fill:#6C645B;" d="M802.817,419.102l16.081,47.186c0,0,35.797-26.109,44.711-51.917l-12.844,4.377l11.73-20.02
			L802.817,419.102z"/>
		<path style="fill:#F8F8F8;" d="M841.664,416.79c1.138,3.338-0.646,6.967-3.984,8.104c-3.338,1.138-6.967-0.646-8.104-3.984
			s0.646-6.967,3.984-8.104C836.898,411.668,840.527,413.452,841.664,416.79z"/>
		<path style="fill:#0A0501;" d="M837.887,418.078c0.569,1.669,0.015,3.368-1.237,3.795c-1.252,0.427-2.728-0.581-3.297-2.25
			c-0.569-1.669-0.015-3.368,1.237-3.795C835.842,415.401,837.318,416.409,837.887,418.078z"/>
		<path style="fill:#6C645B;" d="M614.951,483.596l4.856,10.19l-27.347,26.907c0,0,2.389-20.21-13.39-39.289L614.951,483.596z"/>
	</g>
	<g>
		<path style="fill:#C2E0EE;" d="M598.601,585.198c0,0-1.296-231.889-0.004-250.621c1.292-18.732-50.383-37.463-67.177-45.86
			c-16.794-8.397-10.336-43.923-10.336-43.923h-16.148l0,0l-15.957,0.001c0,0,6.46,35.526-10.334,43.923
			c-16.794,8.397-68.468,27.13-67.176,45.862c1.292,18.732,0.004,250.62,0.004,250.62s-3.875,27.775,23.254,27.129l70.406-0.001l0,0
			l70.215-0.001C602.476,612.972,598.601,585.198,598.601,585.198z"/>
		<path style="opacity:0.45;fill:#F7F8F8;" d="M577.472,344.848c-3.876-22.243-39.403-41.215-54.259-51.682
			c-14.857-10.468-13.565-45.141-13.565-45.141l-7.751,0.654l-3.876,0.001c0,0,1.292,34.019-13.564,44.487
			c-14.856,10.467-50.382,29.44-54.257,51.684c-3.875,22.243,0.004,254.492,0.004,254.492s-1.938,9.159,5.814,10.467
			c6.934,1.171,57.283,0.246,67.822,0.038c10.539,0.208,60.888,1.131,67.822-0.04c7.751-1.309,5.813-10.468,5.813-10.468
			S581.348,367.091,577.472,344.848z"/>
		<rect x="488.171" y="228.808" style="fill:#80AFC1;" width="33.911" height="19.862"/>
		<path style="fill:#4A688D;" d="M521.113,232.199l-32.458,0c-1.865,0-3.391-1.526-3.391-3.391l0,0c0-1.865,1.526-3.391,3.391-3.391
			l32.458-0.001c1.865,0,3.391,1.526,3.391,3.391l0,0C524.504,230.673,522.978,232.199,521.113,232.199z"/>
		<path style="fill:#80AFC1;" d="M592.439,355.247l-175.267,0.003c-5.268,0-9.579-4.31-9.579-9.578l0-4.742
			c0-5.268,4.31-9.579,9.578-9.579l175.267-0.003c5.268,0,9.579,4.31,9.579,9.578l0,4.742
			C602.018,350.937,597.707,355.247,592.439,355.247z"/>
		<path style="fill:#80AFC1;" d="M593.086,392.711l-175.267,0.003c-5.268,0-9.579-4.31-9.579-9.578v-4.742
			c0-5.268,4.31-9.579,9.578-9.579l175.267-0.003c5.268,0,9.579,4.31,9.579,9.578l0,4.742
			C602.664,388.4,598.354,392.711,593.086,392.711z"/>
		<path style="fill:#80AFC1;" d="M593.088,557.423l-175.267,0.003c-5.268,0-9.579-4.31-9.579-9.578v-4.742
			c0-5.268,4.31-9.579,9.578-9.579l175.267-0.003c5.268,0,9.579,4.31,9.579,9.579l0,4.742
			C602.667,553.112,598.357,557.423,593.088,557.423z"/>
		<path style="fill:#80AFC1;" d="M407.597,564.531l0,26.483c0,0-3.875,21.316,27.129,21.315
			c31.005-0.001,147.272-0.003,147.272-0.003s20.024,0.646,20.023-23.9l0-23.899L407.597,564.531z"/>
		<path style="fill:#587E89;" d="M571.663,602.638c0,2.854-28.919,5.168-64.593,5.168c-35.674,0.001-64.593-2.312-64.593-5.166
			c0-2.854,28.919-5.168,64.593-5.169C542.744,597.471,571.663,599.784,571.663,602.638z"/>
		<rect x="448.934" y="408.215" style="fill:#F7F8F8;" width="107.87" height="107.87"/>
		<path style="fill:#F7F8F8;" d="M521.598,249.962l-32.942,0.001c-0.888,0-1.615-0.727-1.615-1.615l0,0
			c0-0.888,0.727-1.615,1.615-1.615l32.942,0c0.888,0,1.615,0.727,1.615,1.615l0,0C523.213,249.235,522.486,249.962,521.598,249.962
			z"/>
		<path style="fill:#F7F8F8;" d="M597.496,333.931l-184.736,0.003c-0.71,0-1.292-0.581-1.292-1.292l0,0
			c0-0.711,0.581-1.292,1.292-1.292l184.736-0.003c0.71,0,1.292,0.581,1.292,1.292l0,0
			C598.788,333.35,598.206,333.931,597.496,333.931z"/>
		<path style="fill:#F7F8F8;" d="M597.496,370.103l-184.736,0.003c-0.711,0-1.292-0.581-1.292-1.292l0,0
			c0-0.711,0.581-1.292,1.292-1.292l184.735-0.003c0.711,0,1.292,0.581,1.292,1.292v0
			C598.788,369.522,598.207,370.103,597.496,370.103z"/>
		<path style="fill:#F7F8F8;" d="M597.499,534.169l-184.735,0.003c-0.711,0-1.292-0.581-1.292-1.292v0
			c0-0.711,0.581-1.292,1.292-1.292l184.735-0.003c0.711,0,1.292,0.581,1.292,1.292l0,0
			C598.791,533.588,598.21,534.169,597.499,534.169z"/>
		<path style="fill:#F7F8F8;" d="M601.071,565.82l-193.169,0.003c-0.878,0-1.596-0.718-1.596-1.596v-1.329
			c0-0.878,0.718-1.596,1.596-1.596l193.169-0.003c0.878,0,1.596,0.718,1.596,1.596v1.329
			C602.667,565.101,601.949,565.82,601.071,565.82z"/>
	</g>
	<g>
		<path style="fill:#FFFDFA;" d="M315.807,437.343l-15.516-43.72c0,0-1.19-2.691-3.358-3.06c-2.168-0.369-12.571-2.509-8.335-9.441
			c4.237-6.932,10.226-3.45,10.226-3.45s6.235-9.949,13.183-3.802c6.948,6.147-1.48,12.243-1.48,12.243s-2.718,2.584-1.031,4.753
			c1.687,2.169,23.704,41.324,23.704,41.324L315.807,437.343z"/>
		<path style="fill:#8F5837;" d="M333.953,425.274c0,0,4.315-5.525-1.155-7.637c-5.471-2.112-6.875,6.616-6.875,6.616
			s-4.718-5.863-8.883-1.736c-4.165,4.126-1.856,8.064-1.856,8.064l-2.832-3.598c-1.566-1.232-4.086-0.932-5.515,0.756
			c-0.705,0.833-1.167,2.013-0.988,3.68c0.553,5.13,6.475,6.288,6.475,6.288s-10.98,105.282,46.784,84.485
			C416.871,501.396,333.953,425.274,333.953,425.274z"/>
		<path style="fill:#9B734C;" d="M336.848,443.952c0,0-15.194,1.761-3.795,30.344s13.964,49.583,37.074,33.876
			C393.236,492.465,343.987,439.69,336.848,443.952z"/>
	</g>
	<g>
		<path style="fill:#F6A534;" d="M424.58,550.296c0,0,15.77,8.798,19.408-9.389c3.638-18.186,8.999-56.138-12.487-116.739
			c-21.486-60.601-43.644-124.497-77.428-114.836c-33.784,9.661,1.4,107.625,15.383,149.861
			C383.439,501.43,398.191,533.828,424.58,550.296z"/>
		<path style="fill:#F3E08E;" d="M358.045,368.244c0,0,18.447-6.139,23.469-25.273c0,0,2.405-6.453-5.401-2.12
			C368.306,345.183,346.021,370.998,358.045,368.244z"/>
		<path style="fill:#F3E08E;" d="M373.194,409.081c0,0,18.447-6.139,23.469-25.273c0,0,2.405-6.453-5.401-2.12
			C383.455,386.02,361.17,411.835,373.194,409.081z"/>
		<path style="fill:#F3E08E;" d="M387.547,458.051c0,0,22.002-7.105,27.423-30.956c0,0,2.685-8.021-6.569-2.837
			C399.147,429.443,373.165,461.117,387.547,458.051z"/>
		<path style="fill:#F3E08E;" d="M403.028,505.108c0,0,22.643-7.046,27.526-32.854c0,0,2.538-8.652-6.917-3.297
			C414.182,474.312,388.176,507.994,403.028,505.108z"/>
	</g>
	<g>
		<g>
			<path style="fill:#09453C;" d="M645.185,383.578c-0.219,0.631-8.122,18.124-13.871,25.755c0,0-12.836,9.632,0.756,3.258
				C645.662,406.218,647.419,377.147,645.185,383.578z"/>
			<path style="fill:#03272C;" d="M649.333,370.173c0,0-18.56,10.491-15.254,40.869
				C634.078,411.042,639.629,383.294,649.333,370.173z"/>
			<path style="fill:#345948;" d="M629.357,414.649c0,0,0.931-8.951-0.209-15.218c-1.14-6.268,4.557-17.665,4.557-17.665
				S640.44,397.518,629.357,414.649z"/>
		</g>
		<path style="fill:#EB893D;" d="M631.417,406.219c0,0-21.57-1.889-22.07,14.296c-0.499,16.185-3.323,90.359,2.028,89.212
			c5.351-1.147,36.951-63.072,39.139-88.471C650.514,421.256,651.34,404.696,631.417,406.219z"/>
	</g>
	<g>
		<g>
			<g>
				
					<rect x="499.478" y="416.138" transform="matrix(0.9487 -0.3162 0.3162 0.9487 -109.7403 180.3677)" style="fill:#776764;" width="2.747" height="24.323"/>
			</g>
			<path style="fill:#C4573C;" d="M505.247,437.09c0,0-32.415-7.691-33.514,16.483c-1.098,24.174,15.384,47.249,46.151,43.952
				c30.767-3.297,38.458-62.633,12.086-68.676C529.971,428.848,510.192,422.255,505.247,437.09z"/>
			<path style="fill:#0A4236;" d="M505.247,437.09c0,0,0-12.087-15.933-13.186C489.314,423.904,489.314,433.244,505.247,437.09z"/>
		</g>
		<g>
			<g>
				
					<rect x="577.037" y="444.293" transform="matrix(0.6974 -0.7167 0.7167 0.6974 -141.1059 557.1503)" style="fill:#776764;" width="24.323" height="2.747"/>
			</g>
			<path style="fill:#C1391E;" d="M583.41,453.608c0,0-8.059-32.326-30.036-22.197c-21.977,10.129-34.902,35.37-17.84,61.184
				c17.062,25.814,73.3,5.388,66.553-20.813C602.088,471.783,598.858,451.186,583.41,453.608z"/>
			<path style="fill:#0A4236;" d="M583.41,453.608c0,0,10.736-5.553,4.393-20.21C587.803,433.399,579.507,437.69,583.41,453.608z"/>
		</g>
		<g>
			<g>
				
					<rect x="614.787" y="450.267" transform="matrix(0.7167 -0.6974 0.6974 0.7167 -147.926 560.7426)" style="fill:#776764;" width="2.747" height="24.324"/>
			</g>
			<path style="fill:#C4573C;" d="M621.95,470.37c0,0,8.058-32.326,30.035-22.198c21.977,10.129,34.903,35.369,17.842,61.183
				c-17.061,25.815-73.3,5.39-66.554-20.81C603.273,488.546,606.502,467.948,621.95,470.37z"/>
			<path style="fill:#0A4236;" d="M621.95,470.37c0,0-10.736-5.552-4.393-20.209C617.556,450.161,625.852,454.451,621.95,470.37z"/>
		</g>
	</g>
	<g>
		<polygon style="fill:#03272C;" points="597.081,552.857 597.086,804.296 312.142,804.301 312.137,482.618 597.08,482.613 		"/>
		<g>
			<polygon style="fill:#345948;" points="786.094,552.454 786.098,803.894 501.155,803.899 501.149,482.216 786.093,482.211 			"/>
			<g>
				<polygon style="fill:#447762;" points="792.742,481.812 842.133,559.238 540.726,559.243 501.466,481.817 				"/>
				<polygon style="fill:#447762;" points="501.466,481.817 465.374,559.245 267.813,555.257 312.77,481.82 				"/>
			</g>
		</g>
	</g>
	<path style="fill:#030930;" d="M903.237,739.883c-8.936-1.969-18.625-5.222-13.131-9.424c0,0,2.202-1.651,9.357,1.101
		c0,0-9.908-6.605-6.055-8.807c3.853-2.202,13.21,8.256,13.21,8.256s-8.257-13.76-3.303-14.861c4.954-1.101,8.807,13.21,8.807,13.21
		s0-12.66,4.954-13.21c0,0,4.403-1.101,1.652,12.66c0,0,7.706-11.559,9.907-8.256c2.202,3.302-6.054,13.761-6.054,13.761
		s12.109-7.156,13.21-3.853c0.757,2.271-0.307,4.541-7.128,7.348C920.617,741.118,911.734,741.756,903.237,739.883z"/>
	<path style="fill:#0D4331;" d="M449.052,895.544c-8.936-1.969-18.626-5.222-13.131-9.424c0,0,2.202-1.651,9.357,1.101
		c0,0-9.908-6.605-6.055-8.807c3.853-2.202,13.21,8.256,13.21,8.256s-8.257-13.76-3.303-14.861s8.807,13.21,8.807,13.21
		s0-12.66,4.954-13.21c0,0,4.403-1.101,1.651,12.66c0,0,7.706-11.559,9.907-8.257c2.202,3.302-6.054,13.761-6.054,13.761
		s12.109-7.156,13.21-3.853c0.757,2.271-0.307,4.541-7.128,7.348C466.432,896.779,457.549,897.417,449.052,895.544z"/>
	<g>
		<path style="fill:#EEC130;" d="M248.707,781.404c0,0-2.597,1.289-2.189,3.018c0,0,2.497,7.609,4.491,10.318
			c1.994,2.709,7.586,9.535,22.882,11.772c0,0,11.598,0.64,18.513-5.983c6.915-6.623,10.767-12.297,10.663-20.551
			c0,0-0.742-4.767-2.514-7.692c0,0-1.217-3.811-0.222-6.162c0.994-2.351,0.966-4.845,0.675-5.65l-2.561-1.218
			c0,0-1.759-0.515-1.733,1.635c0.027,2.15,0.515,2.441,0.061,4.168c-0.455,1.728-0.457,4.4-0.457,4.4s0.069,1.021-1.124,2.032
			c-1.193,1.011-4.092,5.807-4.092,5.807s-8.963,15.389-25.277,10.681C265.821,787.979,252.098,780.95,248.707,781.404z"/>
		<g>
			<path style="fill:#C19825;" d="M274.942,799.919c-3.176,0-6.501-0.458-9.71-1.389c-8.397-2.44-15.119-7.82-18.928-15.152
				l0.839-0.437c3.688,7.101,10.206,12.314,18.352,14.68c7.573,2.201,15.786,1.693,20.923-1.293
				c10.3-5.984,12.301-26.119,12.32-26.322l0.942,0.089c-0.005,0.051-0.506,5.244-2.309,11.121
				c-1.676,5.464-4.854,12.662-10.478,15.93C283.742,798.978,279.496,799.919,274.942,799.919z"/>
		</g>
	</g>
	<g>
		<path style="fill:#EEC130;" d="M383.914,844.525c0,0,1.596,2.788,0.399,3.753c0,0-5.867,3.744-8.904,4.289
			c-3.036,0.545-11.173,1.513-25.383-7.772c0,0-10.258-7.807-12.943-17.548c-2.685-9.741-3.21-16.608,0.922-22.527
			c0,0,2.971-2.931,5.922-3.792c0,0,2.909-1.899,3.208-4.316s1.544-4.207,2.188-4.583l2.793,0.943c0,0,1.76,0.881,0.685,2.423
			c-1.076,1.542-1.637,1.405-2.093,2.983c-0.456,1.579-1.763,3.521-1.763,3.521s-0.559,0.692-0.031,2.277
			c0.527,1.585,0.665,7.135,0.665,7.135s0.15,17.566,16.443,25.784C366.02,837.093,381.228,841.776,383.914,844.525z"/>
		<g>
			<path style="fill:#C19825;" d="M380.325,849.45c-5.847,0-13.154-2.669-20.611-7.605c-8.261-5.468-15.022-12.668-17.647-18.792
				c-2.814-6.564-2.168-12.143-1.132-15.667c1.126-3.827,2.9-6.072,2.975-6.166l0.696,0.557c-0.069,0.086-6.891,8.861-1.72,20.926
				c5.369,12.528,27.62,28.145,40.482,25.573l0.175,0.873C382.531,849.35,381.455,849.45,380.325,849.45z"/>
		</g>
	</g>
	<g>
		<path style="fill:#EEC130;" d="M346.388,855.49c0,0-0.02,2.721-1.307,2.918c0,0-5.892,0.24-8.347-0.655
			c-2.456-0.895-8.826-3.655-15.273-16.51c0,0-4.183-10.089-1.998-18.366c2.186-8.277,4.728-13.529,10.276-16.102
			c0,0,3.424-2.662,5.953-2.034c0,0,2.94-1.932,4.188-3.574c1.249-1.642,2.924-2.422,3.556-2.423l1.643,0.99
			c0,0,0.914,2.286-0.531,2.957c-1.445,0.671-2.688,3.894-3.695,4.856s-1.9,1.827-1.9,1.827s-0.704,0.268-0.993,1.654
			c-0.289,1.385-2.555,5.508-2.555,5.508s-7.378,12.926,1.05,25.887C336.453,842.421,345.593,852.332,346.388,855.49z"/>
		<g>
			<path style="fill:#C19825;" d="M345.084,858.71c-0.054-0.034-5.491-3.496-10.851-8.771c-4.977-4.898-10.91-12.41-10.91-20.387
				c0-15.198,12.531-24.325,12.658-24.415l0.518,0.725c-0.123,0.088-12.285,8.96-12.285,23.69c0,14.723,21.133,28.27,21.346,28.405
				L345.084,858.71z"/>
		</g>
	</g>
	<path style="fill:#EEC130;" d="M771.146,840.035c-0.149-0.345-0.321-0.679-0.548-0.979c-2.278-3.006-13.555-16.025-32.559-7.654
		c0,0-0.939,0.492-2.713,0.645c-1.775,0.153-2.848-0.182-3.299,1.012c-0.451,1.194,0.032,1.659,1.351,2.463
		c1.319,0.804,2.657,2.556,2.796,3.62c0.139,1.064,6.957,10.413,18.688,10.305c9.531-0.088,12.374-2.159,13.105-2.933
		c0.277-0.293,0.587-0.554,0.938-0.753c0.675-0.382,1.712-0.82,2.586-0.547c1.431,0.446,2.583-1.235,2.208-2.294
		C773.358,841.959,771.659,841.22,771.146,840.035z"/>
	<path style="fill:#EEC130;" d="M824.115,805.295c-0.336-0.141-0.68-0.259-1.039-0.315c-3.606-0.568-20.21-2.082-27.849,16.512
		c0,0-0.324,0.973-1.46,2.271c-1.135,1.298-2.109,1.784-1.622,2.92c0.487,1.135,1.135,1.135,2.595,0.811
		c1.46-0.325,3.569,0,4.38,0.649c0.811,0.649,11.842,2.595,19.952-5.353c6.59-6.458,7.183-9.811,7.174-10.841
		c-0.003-0.391,0.038-0.781,0.149-1.155c0.214-0.719,0.644-1.721,1.436-2.117c1.298-0.649,0.973-2.595,0-3.082
		C826.949,805.153,825.267,805.778,824.115,805.295z"/>
	<path style="fill:#03272C;" d="M797.437,807.885c0,4.849-24.301,8.781-54.279,8.781c-29.977,0-54.279-3.93-54.279-8.78
		c0-4.849,24.301-8.781,54.279-8.781C773.135,799.105,797.437,803.035,797.437,807.885z"/>
	<g>
		<g>
			<path style="fill:#AC5519;" d="M718.799,745.737c-0.037-0.355-0.892-8.818,0.145-19.435c1.408-14.398,5.478-25.27,12.1-32.313
				c5.996-6.377,13.975-9.404,23.731-8.993c0.005,0,0.01,0,0.015,0c1.286,0,28.09,0.826,32.864,60.448l-3.183,0.254
				c-4.557-56.9-29.46-57.51-29.757-57.51c0,0,0,0-0.001,0c-8.861-0.381-16.011,2.318-21.344,7.989
				c-14.7,15.633-11.431,48.897-11.396,49.23L718.799,745.737z"/>
		</g>
		<path style="fill:#F2F2ED;" d="M667.326,735.743c0,0,18.925,80.349,84.973,73.937c66.048-6.412,78.662-73.085,78.662-73.085
			L667.326,735.743z"/>
		<g>
			<polygon style="fill:#F6A534;" points="809.187,781.606 687.651,781.608 687.65,735.855 690.045,735.855 690.045,779.213 
				809.187,779.211 			"/>
		</g>
		<g>
			<rect x="707.318" y="735.957" style="fill:#F6A534;" width="2.395" height="63.205"/>
		</g>
		<g>
			<rect x="729.951" y="735.957" style="fill:#F6A534;" width="2.395" height="72.886"/>
		</g>
		<g>
			<rect x="751.851" y="736.189" style="fill:#F6A534;" width="2.395" height="73.598"/>
		</g>
		<g>
			<rect x="771.882" y="736.293" style="fill:#F6A534;" width="2.395" height="68.151"/>
		</g>
		<g>
			<rect x="793.033" y="736.403" style="fill:#F6A534;" width="2.395" height="58.998"/>
		</g>
		<g>
			<rect x="813.809" y="736.403" style="fill:#F6A534;" width="2.395" height="35.995"/>
		</g>
		<g>
			<rect x="672.521" y="750.084" style="fill:#F6A534;" width="153.888" height="2.395"/>
		</g>
		<g>
			<rect x="678.503" y="762.964" style="fill:#F6A534;" width="141.464" height="2.395"/>
		</g>
		<g>
			<rect x="701.449" y="792.623" style="fill:#F6A534;" width="93.803" height="2.395"/>
		</g>
	</g>
</g>
</svg>
